<svg width="132" height="32" viewBox="0 0 132 32" fill="none" xmlns="http://www.w3.org/2000/svg">
<path d="M131.074 6.15565H116.93V12.9222H131.074V25.8443V32H110.774V25.8443H124.918V19.0778H110.774V0H131.074V6.15565Z" fill="#52F2B9"/>
<path d="M106.547 32H100.391V0H106.547V32Z" fill="#52F2B9"/>
<path d="M96.1531 0V6.15565H89.0576V32H82.949V6.15565H75.8535V0H89.0576H96.1531Z" fill="#52F2B9"/>
<path d="M73.0251 0V32H66.8695V6.15565H58.8812V32H52.7256V0H66.8695H73.0251Z" fill="#52F2B9"/>
<path d="M49.8977 0V32H43.7421V19.0778H35.7538V32H29.5981V12.9222V0H43.7421H49.8977ZM35.7538 12.9222H43.7421V6.15565H35.7538V12.9222Z" fill="#52F2B9"/>
<path d="M26.7841 0V32H20.6285V6.15565H16.3054V32H10.1498V6.15565H6.15565V32H0V0H10.1498H26.7841Z" fill="#52F2B9"/>
</svg>
